<svg width="24" height="24" viewBox="0 0 24 24" fill="none" xmlns="http://www.w3.org/2000/svg"><path d="M22 0H2C0.895431 0 0 0.89543 0 2V22C0 23.1046 0.89543 24 2 24H22C23.1046 24 24 23.1046 24 22V2C24 0.895431 23.1046 0 22 0Z" fill="white"/><path d="M11.1652 16.1738H7.82617C6.67141 16.1738 5.68723 15.7667 4.87361 14.9526C4.05998 14.1384 3.6529 13.1542 3.65234 12C3.65234 10.8453 4.05943 9.86105 4.87361 9.04743C5.68778 8.23381 6.67197 7.82673 7.82617 7.82617H11.1652V9.4957H7.82617C7.13054 9.4957 6.53924 9.73918 6.05229 10.2261C5.56535 10.713 5.32187 11.3044 5.32187 12C5.32187 12.6956 5.56535 13.287 6.05229 13.7739C6.53924 14.2608 7.13054 14.5043 7.82617 14.5043H11.1652V16.1738ZM8.66094 12.8348V11.1652H15.3391V12.8348H8.66094ZM12.8348 16.1738V14.5043H16.1738C16.8694 14.5043 17.4608 14.2608 17.9477 13.7739C18.4346 13.287 18.6781 12.6956 18.6781 12C18.6781 11.3044 18.4346 10.713 17.9477 10.2261C17.4608 9.73918 16.8694 9.4957 16.1738 9.4957H12.8348V7.82617H16.1738C17.3286 7.82617 18.3131 8.23326 19.1272 9.04743C19.9414 9.86161 20.3482 10.8458 20.3477 12C20.3477 13.1547 19.9405 14.1393 19.1264 14.9534C18.3122 15.7675 17.3281 16.1744 16.1738 16.1738H12.8348Z" fill="#D30000"/></svg>
